<mxfile host="app.diagrams.net" modified="2024-06-06T17:38:04.803Z" agent="Mozilla/5.0 (Macintosh; Intel Mac OS X 10_15_7) AppleWebKit/537.36 (KHTML, like Gecko) Chrome/123.0.0.0 Safari/537.36" etag="TCDC11K69hhL3ts-7Goe" version="24.4.15" type="github">
  <diagram id="M_zqmDelzy8pDt6vgbyE" name="Page-1">
    <mxGraphModel dx="1607" dy="1637" grid="1" gridSize="10" guides="1" tooltips="1" connect="1" arrows="1" fold="1" page="1" pageScale="1" pageWidth="827" pageHeight="1169" math="0" shadow="0">
      <root>
        <mxCell id="0" />
        <mxCell id="1" parent="0" />
        <mxCell id="EXQ4jVyw8t44hVukwaR4-107" value="" style="rounded=0;whiteSpace=wrap;html=1;fontSize=9;" parent="1" vertex="1">
          <mxGeometry x="19" y="40" width="790" height="760" as="geometry" />
        </mxCell>
        <mxCell id="EXQ4jVyw8t44hVukwaR4-1" value="" style="whiteSpace=wrap;html=1;aspect=fixed;" parent="1" vertex="1">
          <mxGeometry x="209" y="570" as="geometry" />
        </mxCell>
        <mxCell id="EXQ4jVyw8t44hVukwaR4-2" value="" style="whiteSpace=wrap;html=1;aspect=fixed;" parent="1" vertex="1">
          <mxGeometry x="9" y="-10" width="810" height="810" as="geometry" />
        </mxCell>
        <mxCell id="EXQ4jVyw8t44hVukwaR4-3" value="&lt;font style=&quot;font-size: 26px&quot;&gt;Container&lt;/font&gt;" style="rounded=0;whiteSpace=wrap;html=1;" parent="1" vertex="1">
          <mxGeometry x="19" width="120" height="30" as="geometry" />
        </mxCell>
        <mxCell id="EXQ4jVyw8t44hVukwaR4-5" value="" style="rounded=0;whiteSpace=wrap;html=1;fontSize=26;" parent="1" vertex="1">
          <mxGeometry x="59" y="70" width="750" height="710" as="geometry" />
        </mxCell>
        <mxCell id="EXQ4jVyw8t44hVukwaR4-6" value="&lt;font style=&quot;font-size: 26px&quot;&gt;SizedBox&lt;/font&gt;" style="rounded=0;whiteSpace=wrap;html=1;" parent="1" vertex="1">
          <mxGeometry x="69" y="80" width="120" height="30" as="geometry" />
        </mxCell>
        <mxCell id="EXQ4jVyw8t44hVukwaR4-8" value="&lt;font style=&quot;font-size: 17px&quot;&gt;width = 1320px 이상이면 뷰포트 너비, 그렇지 않으면 1320px&lt;/font&gt;" style="rounded=0;whiteSpace=wrap;html=1;fontSize=26;" parent="1" vertex="1">
          <mxGeometry x="149" width="570" height="30" as="geometry" />
        </mxCell>
        <mxCell id="EXQ4jVyw8t44hVukwaR4-9" value="width = 1320px" style="rounded=0;whiteSpace=wrap;html=1;fontSize=17;" parent="1" vertex="1">
          <mxGeometry x="199" y="80" width="190" height="30" as="geometry" />
        </mxCell>
        <mxCell id="EXQ4jVyw8t44hVukwaR4-10" value="" style="rounded=0;whiteSpace=wrap;html=1;fontSize=17;" parent="1" vertex="1">
          <mxGeometry x="69" y="120" width="730" height="640" as="geometry" />
        </mxCell>
        <mxCell id="EXQ4jVyw8t44hVukwaR4-11" value="&lt;span style=&quot;font-size: 26px&quot;&gt;Padding&lt;/span&gt;" style="rounded=0;whiteSpace=wrap;html=1;" parent="1" vertex="1">
          <mxGeometry x="79" y="130" width="120" height="30" as="geometry" />
        </mxCell>
        <mxCell id="EXQ4jVyw8t44hVukwaR4-12" value="좌우 60px, 상 50px" style="rounded=0;whiteSpace=wrap;html=1;fontSize=17;" parent="1" vertex="1">
          <mxGeometry x="209" y="130" width="190" height="30" as="geometry" />
        </mxCell>
        <mxCell id="EXQ4jVyw8t44hVukwaR4-13" value="" style="rounded=0;whiteSpace=wrap;html=1;fontSize=17;" parent="1" vertex="1">
          <mxGeometry x="79" y="170" width="710" height="570" as="geometry" />
        </mxCell>
        <mxCell id="EXQ4jVyw8t44hVukwaR4-14" value="&lt;span style=&quot;font-size: 26px&quot;&gt;Column&lt;/span&gt;" style="rounded=0;whiteSpace=wrap;html=1;" parent="1" vertex="1">
          <mxGeometry x="89" y="180" width="120" height="30" as="geometry" />
        </mxCell>
        <mxCell id="EXQ4jVyw8t44hVukwaR4-15" value="" style="rounded=0;whiteSpace=wrap;html=1;fontSize=17;" parent="1" vertex="1">
          <mxGeometry x="89" y="220" width="690" height="70" as="geometry" />
        </mxCell>
        <mxCell id="EXQ4jVyw8t44hVukwaR4-16" value="Row" style="rounded=0;whiteSpace=wrap;html=1;fontSize=17;" parent="1" vertex="1">
          <mxGeometry x="99" y="225" width="80" height="15" as="geometry" />
        </mxCell>
        <mxCell id="EXQ4jVyw8t44hVukwaR4-18" value="" style="rounded=0;whiteSpace=wrap;html=1;fontSize=17;" parent="1" vertex="1">
          <mxGeometry x="99" y="240" width="100" height="40" as="geometry" />
        </mxCell>
        <mxCell id="EXQ4jVyw8t44hVukwaR4-19" value="&lt;font size=&quot;1&quot;&gt;GestureDetector&lt;/font&gt;" style="rounded=0;whiteSpace=wrap;html=1;fontSize=17;" parent="1" vertex="1">
          <mxGeometry x="99" y="240" width="90" height="10" as="geometry" />
        </mxCell>
        <mxCell id="EXQ4jVyw8t44hVukwaR4-20" value="" style="rounded=0;whiteSpace=wrap;html=1;fontSize=16;" parent="1" vertex="1">
          <mxGeometry x="109" y="250" width="80" height="30" as="geometry" />
        </mxCell>
        <mxCell id="EXQ4jVyw8t44hVukwaR4-21" value="&lt;font style=&quot;font-size: 10px&quot;&gt;padding&lt;/font&gt;" style="rounded=0;whiteSpace=wrap;html=1;fontSize=16;" parent="1" vertex="1">
          <mxGeometry x="109" y="250" width="60" height="10" as="geometry" />
        </mxCell>
        <mxCell id="EXQ4jVyw8t44hVukwaR4-22" value="Image" style="rounded=0;whiteSpace=wrap;html=1;fontSize=10;" parent="1" vertex="1">
          <mxGeometry x="119" y="260" width="70" height="20" as="geometry" />
        </mxCell>
        <mxCell id="EXQ4jVyw8t44hVukwaR4-24" value="" style="rounded=0;whiteSpace=wrap;html=1;fontSize=17;" parent="1" vertex="1">
          <mxGeometry x="254" y="240" width="95" height="40" as="geometry" />
        </mxCell>
        <mxCell id="EXQ4jVyw8t44hVukwaR4-25" value="&lt;font size=&quot;1&quot;&gt;GestureDetector&lt;/font&gt;" style="rounded=0;whiteSpace=wrap;html=1;fontSize=17;" parent="1" vertex="1">
          <mxGeometry x="254" y="240" width="85" height="10" as="geometry" />
        </mxCell>
        <mxCell id="EXQ4jVyw8t44hVukwaR4-26" value="" style="rounded=0;whiteSpace=wrap;html=1;fontSize=16;" parent="1" vertex="1">
          <mxGeometry x="264" y="250" width="75" height="30" as="geometry" />
        </mxCell>
        <mxCell id="EXQ4jVyw8t44hVukwaR4-27" value="&lt;font style=&quot;font-size: 10px&quot;&gt;padding&lt;/font&gt;" style="rounded=0;whiteSpace=wrap;html=1;fontSize=16;" parent="1" vertex="1">
          <mxGeometry x="264" y="250" width="60" height="10" as="geometry" />
        </mxCell>
        <mxCell id="EXQ4jVyw8t44hVukwaR4-28" value="Text" style="rounded=0;whiteSpace=wrap;html=1;fontSize=10;" parent="1" vertex="1">
          <mxGeometry x="264" y="260" width="65" height="20" as="geometry" />
        </mxCell>
        <mxCell id="EXQ4jVyw8t44hVukwaR4-30" value="Vertical&lt;br&gt;Divider" style="rounded=0;whiteSpace=wrap;html=1;fontSize=10;" parent="1" vertex="1">
          <mxGeometry x="209" y="240" width="40" height="40" as="geometry" />
        </mxCell>
        <mxCell id="EXQ4jVyw8t44hVukwaR4-31" value="Vertical&lt;br&gt;Divider" style="rounded=0;whiteSpace=wrap;html=1;fontSize=10;" parent="1" vertex="1">
          <mxGeometry x="359" y="240" width="40" height="40" as="geometry" />
        </mxCell>
        <mxCell id="EXQ4jVyw8t44hVukwaR4-32" value="" style="rounded=0;whiteSpace=wrap;html=1;fontSize=17;" parent="1" vertex="1">
          <mxGeometry x="409" y="240" width="95" height="40" as="geometry" />
        </mxCell>
        <mxCell id="EXQ4jVyw8t44hVukwaR4-33" value="&lt;font size=&quot;1&quot;&gt;GestureDetector&lt;/font&gt;" style="rounded=0;whiteSpace=wrap;html=1;fontSize=17;" parent="1" vertex="1">
          <mxGeometry x="409" y="240" width="85" height="10" as="geometry" />
        </mxCell>
        <mxCell id="EXQ4jVyw8t44hVukwaR4-35" value="" style="rounded=0;whiteSpace=wrap;html=1;fontSize=16;" parent="1" vertex="1">
          <mxGeometry x="419" y="250" width="75" height="30" as="geometry" />
        </mxCell>
        <mxCell id="EXQ4jVyw8t44hVukwaR4-36" value="&lt;font style=&quot;font-size: 10px&quot;&gt;padding&lt;/font&gt;" style="rounded=0;whiteSpace=wrap;html=1;fontSize=16;" parent="1" vertex="1">
          <mxGeometry x="419" y="250" width="60" height="10" as="geometry" />
        </mxCell>
        <mxCell id="EXQ4jVyw8t44hVukwaR4-37" value="Text" style="rounded=0;whiteSpace=wrap;html=1;fontSize=10;" parent="1" vertex="1">
          <mxGeometry x="419" y="260" width="65" height="20" as="geometry" />
        </mxCell>
        <mxCell id="EXQ4jVyw8t44hVukwaR4-38" value="&lt;font style=&quot;font-size: 9px&quot;&gt;Vertical&lt;br style=&quot;font-size: 9px&quot;&gt;Divider&lt;/font&gt;" style="rounded=0;whiteSpace=wrap;html=1;fontSize=10;" parent="1" vertex="1">
          <mxGeometry x="509" y="240" width="40" height="40" as="geometry" />
        </mxCell>
        <mxCell id="EXQ4jVyw8t44hVukwaR4-39" value="" style="rounded=0;whiteSpace=wrap;html=1;fontSize=17;" parent="1" vertex="1">
          <mxGeometry x="559" y="240" width="95" height="40" as="geometry" />
        </mxCell>
        <mxCell id="EXQ4jVyw8t44hVukwaR4-40" value="" style="rounded=0;whiteSpace=wrap;html=1;fontSize=16;" parent="1" vertex="1">
          <mxGeometry x="569" y="250" width="75" height="30" as="geometry" />
        </mxCell>
        <mxCell id="EXQ4jVyw8t44hVukwaR4-41" value="&lt;font size=&quot;1&quot;&gt;GestureDetector&lt;/font&gt;" style="rounded=0;whiteSpace=wrap;html=1;fontSize=17;" parent="1" vertex="1">
          <mxGeometry x="559" y="240" width="85" height="10" as="geometry" />
        </mxCell>
        <mxCell id="EXQ4jVyw8t44hVukwaR4-42" value="&lt;font style=&quot;font-size: 10px&quot;&gt;padding&lt;/font&gt;" style="rounded=0;whiteSpace=wrap;html=1;fontSize=16;" parent="1" vertex="1">
          <mxGeometry x="569" y="250" width="60" height="10" as="geometry" />
        </mxCell>
        <mxCell id="EXQ4jVyw8t44hVukwaR4-43" value="Text" style="rounded=0;whiteSpace=wrap;html=1;fontSize=10;" parent="1" vertex="1">
          <mxGeometry x="569" y="260" width="65" height="20" as="geometry" />
        </mxCell>
        <mxCell id="EXQ4jVyw8t44hVukwaR4-44" value="&lt;font style=&quot;font-size: 9px&quot;&gt;Vertical&lt;br style=&quot;font-size: 9px&quot;&gt;Divider&lt;/font&gt;" style="rounded=0;whiteSpace=wrap;html=1;fontSize=10;" parent="1" vertex="1">
          <mxGeometry x="659" y="240" width="40" height="40" as="geometry" />
        </mxCell>
        <mxCell id="EXQ4jVyw8t44hVukwaR4-45" value="" style="rounded=0;whiteSpace=wrap;html=1;fontSize=17;" parent="1" vertex="1">
          <mxGeometry x="709" y="240" width="70" height="40" as="geometry" />
        </mxCell>
        <mxCell id="EXQ4jVyw8t44hVukwaR4-46" value="&lt;font size=&quot;1&quot;&gt;GestureDetector&lt;/font&gt;" style="rounded=0;whiteSpace=wrap;html=1;fontSize=17;" parent="1" vertex="1">
          <mxGeometry x="709" y="240" width="70" height="10" as="geometry" />
        </mxCell>
        <mxCell id="EXQ4jVyw8t44hVukwaR4-47" value="&lt;font style=&quot;font-size: 10px&quot;&gt;padding&lt;/font&gt;" style="rounded=0;whiteSpace=wrap;html=1;fontSize=16;" parent="1" vertex="1">
          <mxGeometry x="709" y="250" width="60" height="10" as="geometry" />
        </mxCell>
        <mxCell id="EXQ4jVyw8t44hVukwaR4-48" value="Text" style="rounded=0;whiteSpace=wrap;html=1;fontSize=10;" parent="1" vertex="1">
          <mxGeometry x="714" y="260" width="65" height="20" as="geometry" />
        </mxCell>
        <mxCell id="EXQ4jVyw8t44hVukwaR4-50" value="" style="rounded=0;whiteSpace=wrap;html=1;fontSize=9;" parent="1" vertex="1">
          <mxGeometry x="89" y="340" width="190" height="40" as="geometry" />
        </mxCell>
        <mxCell id="EXQ4jVyw8t44hVukwaR4-57" value="Text" style="rounded=0;whiteSpace=wrap;html=1;fontSize=9;" parent="1" vertex="1">
          <mxGeometry x="89" y="440" width="280" height="40" as="geometry" />
        </mxCell>
        <mxCell id="EXQ4jVyw8t44hVukwaR4-59" value="" style="rounded=0;whiteSpace=wrap;html=1;fontSize=17;" parent="1" vertex="1">
          <mxGeometry x="89" y="535" width="690" height="70" as="geometry" />
        </mxCell>
        <mxCell id="EXQ4jVyw8t44hVukwaR4-60" value="Row" style="rounded=0;whiteSpace=wrap;html=1;fontSize=17;" parent="1" vertex="1">
          <mxGeometry x="99" y="535" width="80" height="15" as="geometry" />
        </mxCell>
        <mxCell id="EXQ4jVyw8t44hVukwaR4-62" value="Text" style="rounded=0;whiteSpace=wrap;html=1;fontSize=9;" parent="1" vertex="1">
          <mxGeometry x="99" y="560" width="150" height="40" as="geometry" />
        </mxCell>
        <mxCell id="EXQ4jVyw8t44hVukwaR4-65" value="" style="rounded=0;whiteSpace=wrap;html=1;fontSize=9;" parent="1" vertex="1">
          <mxGeometry x="299" y="560" width="90" height="40" as="geometry" />
        </mxCell>
        <mxCell id="EXQ4jVyw8t44hVukwaR4-66" value="" style="rounded=0;whiteSpace=wrap;html=1;fontSize=9;" parent="1" vertex="1">
          <mxGeometry x="394" y="560" width="90" height="40" as="geometry" />
        </mxCell>
        <mxCell id="EXQ4jVyw8t44hVukwaR4-67" value="" style="rounded=0;whiteSpace=wrap;html=1;fontSize=9;" parent="1" vertex="1">
          <mxGeometry x="489" y="560" width="90" height="40" as="geometry" />
        </mxCell>
        <mxCell id="EXQ4jVyw8t44hVukwaR4-68" value="" style="rounded=0;whiteSpace=wrap;html=1;fontSize=9;" parent="1" vertex="1">
          <mxGeometry x="589" y="560" width="90" height="40" as="geometry" />
        </mxCell>
        <mxCell id="EXQ4jVyw8t44hVukwaR4-69" value="" style="rounded=0;whiteSpace=wrap;html=1;fontSize=9;" parent="1" vertex="1">
          <mxGeometry x="689" y="560" width="90" height="40" as="geometry" />
        </mxCell>
        <mxCell id="EXQ4jVyw8t44hVukwaR4-70" value="&lt;font size=&quot;1&quot;&gt;GestureDetector&lt;/font&gt;" style="rounded=0;whiteSpace=wrap;html=1;fontSize=17;" parent="1" vertex="1">
          <mxGeometry x="299" y="560" width="85" height="10" as="geometry" />
        </mxCell>
        <mxCell id="EXQ4jVyw8t44hVukwaR4-71" value="&lt;font size=&quot;1&quot;&gt;GestureDetector&lt;/font&gt;" style="rounded=0;whiteSpace=wrap;html=1;fontSize=17;" parent="1" vertex="1">
          <mxGeometry x="394" y="560" width="85" height="10" as="geometry" />
        </mxCell>
        <mxCell id="EXQ4jVyw8t44hVukwaR4-72" value="&lt;font size=&quot;1&quot;&gt;GestureDetector&lt;/font&gt;" style="rounded=0;whiteSpace=wrap;html=1;fontSize=17;" parent="1" vertex="1">
          <mxGeometry x="489" y="560" width="85" height="10" as="geometry" />
        </mxCell>
        <mxCell id="EXQ4jVyw8t44hVukwaR4-73" value="&lt;font size=&quot;1&quot;&gt;GestureDetector&lt;/font&gt;" style="rounded=0;whiteSpace=wrap;html=1;fontSize=17;" parent="1" vertex="1">
          <mxGeometry x="589" y="560" width="85" height="10" as="geometry" />
        </mxCell>
        <mxCell id="EXQ4jVyw8t44hVukwaR4-76" value="" style="rounded=0;whiteSpace=wrap;html=1;fontSize=9;" parent="1" vertex="1">
          <mxGeometry x="309" y="570" width="70" height="30" as="geometry" />
        </mxCell>
        <mxCell id="EXQ4jVyw8t44hVukwaR4-77" value="&lt;font style=&quot;font-size: 10px&quot;&gt;padding&lt;/font&gt;" style="rounded=0;whiteSpace=wrap;html=1;fontSize=16;" parent="1" vertex="1">
          <mxGeometry x="309" y="570" width="60" height="10" as="geometry" />
        </mxCell>
        <mxCell id="EXQ4jVyw8t44hVukwaR4-78" value="" style="rounded=0;whiteSpace=wrap;html=1;fontSize=9;" parent="1" vertex="1">
          <mxGeometry x="401.5" y="570" width="70" height="30" as="geometry" />
        </mxCell>
        <mxCell id="EXQ4jVyw8t44hVukwaR4-79" value="" style="rounded=0;whiteSpace=wrap;html=1;fontSize=9;" parent="1" vertex="1">
          <mxGeometry x="496.5" y="570" width="70" height="30" as="geometry" />
        </mxCell>
        <mxCell id="EXQ4jVyw8t44hVukwaR4-80" value="" style="rounded=0;whiteSpace=wrap;html=1;fontSize=9;" parent="1" vertex="1">
          <mxGeometry x="596.5" y="570" width="70" height="30" as="geometry" />
        </mxCell>
        <mxCell id="EXQ4jVyw8t44hVukwaR4-81" value="" style="rounded=0;whiteSpace=wrap;html=1;fontSize=9;" parent="1" vertex="1">
          <mxGeometry x="699" y="570" width="70" height="30" as="geometry" />
        </mxCell>
        <mxCell id="EXQ4jVyw8t44hVukwaR4-82" value="&lt;font size=&quot;1&quot;&gt;GestureDetector&lt;/font&gt;" style="rounded=0;whiteSpace=wrap;html=1;fontSize=17;" parent="1" vertex="1">
          <mxGeometry x="689" y="560" width="85" height="10" as="geometry" />
        </mxCell>
        <mxCell id="EXQ4jVyw8t44hVukwaR4-83" value="&lt;font style=&quot;font-size: 10px&quot;&gt;padding&lt;/font&gt;" style="rounded=0;whiteSpace=wrap;html=1;fontSize=16;" parent="1" vertex="1">
          <mxGeometry x="401.5" y="570" width="60" height="10" as="geometry" />
        </mxCell>
        <mxCell id="EXQ4jVyw8t44hVukwaR4-84" value="&lt;font style=&quot;font-size: 10px&quot;&gt;padding&lt;/font&gt;" style="rounded=0;whiteSpace=wrap;html=1;fontSize=16;" parent="1" vertex="1">
          <mxGeometry x="496.5" y="570" width="60" height="10" as="geometry" />
        </mxCell>
        <mxCell id="EXQ4jVyw8t44hVukwaR4-85" value="&lt;font style=&quot;font-size: 10px&quot;&gt;padding&lt;/font&gt;" style="rounded=0;whiteSpace=wrap;html=1;fontSize=16;" parent="1" vertex="1">
          <mxGeometry x="596.5" y="570" width="60" height="10" as="geometry" />
        </mxCell>
        <mxCell id="EXQ4jVyw8t44hVukwaR4-86" value="&lt;font style=&quot;font-size: 10px&quot;&gt;padding&lt;/font&gt;" style="rounded=0;whiteSpace=wrap;html=1;fontSize=16;" parent="1" vertex="1">
          <mxGeometry x="699" y="570" width="60" height="10" as="geometry" />
        </mxCell>
        <mxCell id="EXQ4jVyw8t44hVukwaR4-87" value="SvgPicture" style="rounded=0;whiteSpace=wrap;html=1;fontSize=9;" parent="1" vertex="1">
          <mxGeometry x="316.5" y="580" width="50" height="20" as="geometry" />
        </mxCell>
        <mxCell id="EXQ4jVyw8t44hVukwaR4-88" value="SvgPicture" style="rounded=0;whiteSpace=wrap;html=1;fontSize=9;" parent="1" vertex="1">
          <mxGeometry x="411.5" y="580" width="50" height="20" as="geometry" />
        </mxCell>
        <mxCell id="EXQ4jVyw8t44hVukwaR4-89" value="SvgPicture" style="rounded=0;whiteSpace=wrap;html=1;fontSize=9;" parent="1" vertex="1">
          <mxGeometry x="506.5" y="580" width="50" height="20" as="geometry" />
        </mxCell>
        <mxCell id="EXQ4jVyw8t44hVukwaR4-90" value="SvgPicture" style="rounded=0;whiteSpace=wrap;html=1;fontSize=9;" parent="1" vertex="1">
          <mxGeometry x="604" y="580" width="50" height="20" as="geometry" />
        </mxCell>
        <mxCell id="EXQ4jVyw8t44hVukwaR4-91" value="SvgPicture" style="rounded=0;whiteSpace=wrap;html=1;fontSize=9;" parent="1" vertex="1">
          <mxGeometry x="706.5" y="580" width="50" height="20" as="geometry" />
        </mxCell>
        <mxCell id="EXQ4jVyw8t44hVukwaR4-93" value="" style="rounded=0;whiteSpace=wrap;html=1;fontSize=9;" parent="1" vertex="1">
          <mxGeometry x="369" y="670" width="190" height="40" as="geometry" />
        </mxCell>
        <mxCell id="EXQ4jVyw8t44hVukwaR4-94" value="center" style="rounded=0;whiteSpace=wrap;html=1;fontSize=9;" parent="1" vertex="1">
          <mxGeometry x="369" y="670" width="57.5" height="10" as="geometry" />
        </mxCell>
        <mxCell id="EXQ4jVyw8t44hVukwaR4-95" value="Text" style="rounded=0;whiteSpace=wrap;html=1;fontSize=9;" parent="1" vertex="1">
          <mxGeometry x="389" y="680" width="160" height="30" as="geometry" />
        </mxCell>
        <mxCell id="EXQ4jVyw8t44hVukwaR4-96" value="첫 번째 줄 - 로고, 이용약관, 개인정보 처리방침, 공지사항, 고객센터" style="rounded=0;whiteSpace=wrap;html=1;fontSize=9;" parent="1" vertex="1">
          <mxGeometry x="189" y="227.5" width="270" height="10" as="geometry" />
        </mxCell>
        <mxCell id="EXQ4jVyw8t44hVukwaR4-98" value="두 번째 줄 - 법인명, 대표자명, 주소&lt;span style=&quot;color: rgba(0 , 0 , 0 , 0) ; font-family: monospace ; font-size: 0px&quot;&gt;%3CmxGraphModel%3E%3Croot%3E%3CmxCell%20id%3D%220%22%2F%3E%3CmxCell%20id%3D%221%22%20parent%3D%220%22%2F%3E%3CmxCell%20id%3D%222%22%20value%3D%22%EC%B2%AB%20%EB%B2%88%EC%A7%B8%20%EC%A4%84%EA%B3%BC%20%EB%91%90%20%EB%B2%88%EC%A7%B8%20%EC%A4%84%20%EC%82%AC%EC%9D%B4%EC%9D%98%20%EC%97%AC%EB%B0%B1%22%20style%3D%22rounded%3D0%3BwhiteSpace%3Dwrap%3Bhtml%3D1%3BfontSize%3D9%3B%22%20vertex%3D%221%22%20parent%3D%221%22%3E%3CmxGeometry%20x%3D%2240%22%20y%3D%22525%22%20width%3D%22190%22%20height%3D%2210%22%20as%3D%22geometry%22%2F%3E%3C%2FmxCell%3E%3C%2Froot%3E%3C%2FmxGraphModel%3E&lt;/span&gt;" style="rounded=0;whiteSpace=wrap;html=1;fontSize=9;" parent="1" vertex="1">
          <mxGeometry x="89" y="340" width="190" height="10" as="geometry" />
        </mxCell>
        <mxCell id="EXQ4jVyw8t44hVukwaR4-100" value="세 번째 줄 - 사업자 등록번호, 통신판매업, 직업정보제공사업 신고번호" style="rounded=0;whiteSpace=wrap;html=1;fontSize=9;" parent="1" vertex="1">
          <mxGeometry x="89" y="440" width="280" height="10" as="geometry" />
        </mxCell>
        <mxCell id="EXQ4jVyw8t44hVukwaR4-102" value="네 번째 줄 - 연락처, 이메일, sns 버튼" style="rounded=0;whiteSpace=wrap;html=1;fontSize=9;" parent="1" vertex="1">
          <mxGeometry x="189" y="540" width="190" height="10" as="geometry" />
        </mxCell>
        <mxCell id="EXQ4jVyw8t44hVukwaR4-105" value="다섯 번째 줄 - 저작권 관련 표시" style="rounded=0;whiteSpace=wrap;html=1;fontSize=9;" parent="1" vertex="1">
          <mxGeometry x="369" y="660" width="190" height="10" as="geometry" />
        </mxCell>
        <mxCell id="EXQ4jVyw8t44hVukwaR4-109" value="&lt;span style=&quot;font-size: 26px&quot;&gt;Center&lt;/span&gt;" style="rounded=0;whiteSpace=wrap;html=1;" parent="1" vertex="1">
          <mxGeometry x="19" y="40" width="120" height="30" as="geometry" />
        </mxCell>
        <mxCell id="EXQ4jVyw8t44hVukwaR4-110" value="SizedBox" style="rounded=0;whiteSpace=wrap;html=1;shadow=0;fontSize=9;" parent="1" vertex="1">
          <mxGeometry x="209" y="240" width="40" height="10" as="geometry" />
        </mxCell>
        <mxCell id="EXQ4jVyw8t44hVukwaR4-113" value="SizedBox" style="rounded=0;whiteSpace=wrap;html=1;shadow=0;fontSize=9;" parent="1" vertex="1">
          <mxGeometry x="359" y="240" width="40" height="10" as="geometry" />
        </mxCell>
        <mxCell id="EXQ4jVyw8t44hVukwaR4-114" value="SizedBox" style="rounded=0;whiteSpace=wrap;html=1;shadow=0;fontSize=9;" parent="1" vertex="1">
          <mxGeometry x="509" y="240" width="40" height="10" as="geometry" />
        </mxCell>
        <mxCell id="EXQ4jVyw8t44hVukwaR4-115" value="SizedBox" style="rounded=0;whiteSpace=wrap;html=1;shadow=0;fontSize=9;" parent="1" vertex="1">
          <mxGeometry x="659" y="240" width="40" height="10" as="geometry" />
        </mxCell>
        <mxCell id="EXQ4jVyw8t44hVukwaR4-116" value="Padding" style="rounded=0;whiteSpace=wrap;html=1;shadow=0;fontSize=9;" parent="1" vertex="1">
          <mxGeometry x="89" y="350" width="70" height="10" as="geometry" />
        </mxCell>
        <mxCell id="EXQ4jVyw8t44hVukwaR4-118" value="Text" style="rounded=0;whiteSpace=wrap;html=1;shadow=0;fontSize=9;" parent="1" vertex="1">
          <mxGeometry x="109" y="360" width="150" height="20" as="geometry" />
        </mxCell>
        <mxCell id="EXQ4jVyw8t44hVukwaR4-119" value="" style="rounded=0;whiteSpace=wrap;html=1;shadow=0;fontSize=9;" parent="1" vertex="1">
          <mxGeometry x="89" y="510" width="690" height="25" as="geometry" />
        </mxCell>
        <mxCell id="EXQ4jVyw8t44hVukwaR4-120" value="&lt;font style=&quot;font-size: 14px&quot;&gt;Padding&lt;/font&gt;" style="rounded=0;whiteSpace=wrap;html=1;shadow=0;fontSize=9;" parent="1" vertex="1">
          <mxGeometry x="89" y="510" width="120" height="20" as="geometry" />
        </mxCell>
        <mxCell id="EXQ4jVyw8t44hVukwaR4-121" value="Padding" style="rounded=0;whiteSpace=wrap;html=1;shadow=0;fontSize=14;" parent="1" vertex="1">
          <mxGeometry x="99" y="560" width="70" height="10" as="geometry" />
        </mxCell>
        <mxCell id="57l0s3gI56-OWIWqzOJ4-40" value="" style="rounded=0;whiteSpace=wrap;html=1;" parent="1" vertex="1">
          <mxGeometry x="524" y="-910" width="186" height="80" as="geometry" />
        </mxCell>
        <mxCell id="57l0s3gI56-OWIWqzOJ4-41" value="GestureDetector" style="rounded=0;whiteSpace=wrap;html=1;" parent="1" vertex="1">
          <mxGeometry x="524" y="-910" width="146" height="20" as="geometry" />
        </mxCell>
        <mxCell id="57l0s3gI56-OWIWqzOJ4-42" value="Image" style="rounded=0;whiteSpace=wrap;html=1;" parent="1" vertex="1">
          <mxGeometry x="539" y="-890" width="131" height="60" as="geometry" />
        </mxCell>
        <mxCell id="57l0s3gI56-OWIWqzOJ4-43" value="" style="rounded=0;whiteSpace=wrap;html=1;" parent="1" vertex="1">
          <mxGeometry x="740" y="-910" width="100" height="80" as="geometry" />
        </mxCell>
        <mxCell id="57l0s3gI56-OWIWqzOJ4-44" value="" style="rounded=0;whiteSpace=wrap;html=1;" parent="1" vertex="1">
          <mxGeometry x="870" y="-910" width="100" height="80" as="geometry" />
        </mxCell>
        <mxCell id="57l0s3gI56-OWIWqzOJ4-45" value="" style="rounded=0;whiteSpace=wrap;html=1;" parent="1" vertex="1">
          <mxGeometry x="1000" y="-910" width="100" height="80" as="geometry" />
        </mxCell>
        <mxCell id="57l0s3gI56-OWIWqzOJ4-46" value="" style="rounded=0;whiteSpace=wrap;html=1;" parent="1" vertex="1">
          <mxGeometry x="1130" y="-910" width="100" height="80" as="geometry" />
        </mxCell>
        <mxCell id="57l0s3gI56-OWIWqzOJ4-47" value="GestureDetector" style="rounded=0;whiteSpace=wrap;html=1;" parent="1" vertex="1">
          <mxGeometry x="740" y="-910" width="90" height="20" as="geometry" />
        </mxCell>
        <mxCell id="57l0s3gI56-OWIWqzOJ4-48" value="GestureDetector" style="rounded=0;whiteSpace=wrap;html=1;" parent="1" vertex="1">
          <mxGeometry x="870" y="-910" width="90" height="20" as="geometry" />
        </mxCell>
        <mxCell id="57l0s3gI56-OWIWqzOJ4-49" value="GestureDetector" style="rounded=0;whiteSpace=wrap;html=1;" parent="1" vertex="1">
          <mxGeometry x="1000" y="-910" width="90" height="20" as="geometry" />
        </mxCell>
        <mxCell id="57l0s3gI56-OWIWqzOJ4-50" value="GestureDetector" style="rounded=0;whiteSpace=wrap;html=1;" parent="1" vertex="1">
          <mxGeometry x="1130" y="-910" width="90" height="20" as="geometry" />
        </mxCell>
        <mxCell id="57l0s3gI56-OWIWqzOJ4-51" value="&lt;br&gt;&lt;br&gt;Text" style="rounded=0;whiteSpace=wrap;html=1;" parent="1" vertex="1">
          <mxGeometry x="750" y="-890" width="80" height="60" as="geometry" />
        </mxCell>
        <mxCell id="57l0s3gI56-OWIWqzOJ4-52" value="Container" style="rounded=0;whiteSpace=wrap;html=1;" parent="1" vertex="1">
          <mxGeometry x="750" y="-890" width="80" height="20" as="geometry" />
        </mxCell>
        <mxCell id="57l0s3gI56-OWIWqzOJ4-54" value="&lt;br&gt;&lt;br&gt;Text" style="rounded=0;whiteSpace=wrap;html=1;" parent="1" vertex="1">
          <mxGeometry x="880" y="-890" width="80" height="60" as="geometry" />
        </mxCell>
        <mxCell id="57l0s3gI56-OWIWqzOJ4-55" value="&lt;br&gt;&lt;br&gt;Text" style="rounded=0;whiteSpace=wrap;html=1;" parent="1" vertex="1">
          <mxGeometry x="1010" y="-890" width="80" height="60" as="geometry" />
        </mxCell>
        <mxCell id="57l0s3gI56-OWIWqzOJ4-56" value="&lt;br&gt;&lt;br&gt;Text" style="rounded=0;whiteSpace=wrap;html=1;" parent="1" vertex="1">
          <mxGeometry x="1140" y="-890" width="80" height="60" as="geometry" />
        </mxCell>
        <mxCell id="57l0s3gI56-OWIWqzOJ4-57" value="SizedBox" style="rounded=0;whiteSpace=wrap;html=1;" parent="1" vertex="1">
          <mxGeometry x="880" y="-890" width="80" height="20" as="geometry" />
        </mxCell>
        <mxCell id="57l0s3gI56-OWIWqzOJ4-58" value="Container" style="rounded=0;whiteSpace=wrap;html=1;" parent="1" vertex="1">
          <mxGeometry x="1010" y="-890" width="80" height="20" as="geometry" />
        </mxCell>
        <mxCell id="57l0s3gI56-OWIWqzOJ4-59" value="Container" style="rounded=0;whiteSpace=wrap;html=1;" parent="1" vertex="1">
          <mxGeometry x="1140" y="-890" width="80" height="20" as="geometry" />
        </mxCell>
        <mxCell id="57l0s3gI56-OWIWqzOJ4-60" value="Center" style="rounded=0;whiteSpace=wrap;html=1;" parent="1" vertex="1">
          <mxGeometry x="750" y="-870" width="80" height="10" as="geometry" />
        </mxCell>
        <mxCell id="57l0s3gI56-OWIWqzOJ4-61" value="Center" style="rounded=0;whiteSpace=wrap;html=1;" parent="1" vertex="1">
          <mxGeometry x="880" y="-870" width="80" height="10" as="geometry" />
        </mxCell>
        <mxCell id="57l0s3gI56-OWIWqzOJ4-62" value="Center" style="rounded=0;whiteSpace=wrap;html=1;" parent="1" vertex="1">
          <mxGeometry x="1010" y="-870" width="80" height="10" as="geometry" />
        </mxCell>
        <mxCell id="57l0s3gI56-OWIWqzOJ4-63" value="Center" style="rounded=0;whiteSpace=wrap;html=1;" parent="1" vertex="1">
          <mxGeometry x="1140" y="-870" width="80" height="10" as="geometry" />
        </mxCell>
        <mxCell id="57l0s3gI56-OWIWqzOJ4-70" value="" style="rounded=0;whiteSpace=wrap;html=1;" parent="1" vertex="1">
          <mxGeometry x="1130" y="-614" width="390" height="74" as="geometry" />
        </mxCell>
        <mxCell id="57l0s3gI56-OWIWqzOJ4-71" value="Row" style="rounded=0;whiteSpace=wrap;html=1;" parent="1" vertex="1">
          <mxGeometry x="1130" y="-614" width="390" height="14" as="geometry" />
        </mxCell>
        <mxCell id="57l0s3gI56-OWIWqzOJ4-72" value="&lt;br&gt;SvgPicture" style="rounded=0;whiteSpace=wrap;html=1;" parent="1" vertex="1">
          <mxGeometry x="1130" y="-600" width="80" height="60" as="geometry" />
        </mxCell>
        <mxCell id="57l0s3gI56-OWIWqzOJ4-73" value="&lt;br&gt;SvgPicture" style="rounded=0;whiteSpace=wrap;html=1;" parent="1" vertex="1">
          <mxGeometry x="1210" y="-600" width="80" height="60" as="geometry" />
        </mxCell>
        <mxCell id="57l0s3gI56-OWIWqzOJ4-74" value="&lt;br&gt;SvgPicture" style="rounded=0;whiteSpace=wrap;html=1;" parent="1" vertex="1">
          <mxGeometry x="1290" y="-600" width="80" height="60" as="geometry" />
        </mxCell>
        <mxCell id="57l0s3gI56-OWIWqzOJ4-75" value="&lt;br&gt;SvgPicture" style="rounded=0;whiteSpace=wrap;html=1;" parent="1" vertex="1">
          <mxGeometry x="1370" y="-600" width="80" height="60" as="geometry" />
        </mxCell>
        <mxCell id="57l0s3gI56-OWIWqzOJ4-76" value="&lt;font style=&quot;font-size: 11px&quot;&gt;GestureDetector&lt;/font&gt;" style="rounded=0;whiteSpace=wrap;html=1;" parent="1" vertex="1">
          <mxGeometry x="1130" y="-600" width="80" height="20" as="geometry" />
        </mxCell>
        <mxCell id="57l0s3gI56-OWIWqzOJ4-77" value="&lt;font style=&quot;font-size: 11px&quot;&gt;GestureDetector&lt;/font&gt;" style="rounded=0;whiteSpace=wrap;html=1;" parent="1" vertex="1">
          <mxGeometry x="1210" y="-600" width="80" height="20" as="geometry" />
        </mxCell>
        <mxCell id="57l0s3gI56-OWIWqzOJ4-78" value="&lt;font style=&quot;font-size: 11px&quot;&gt;GestureDetector&lt;/font&gt;" style="rounded=0;whiteSpace=wrap;html=1;" parent="1" vertex="1">
          <mxGeometry x="1290" y="-600" width="80" height="20" as="geometry" />
        </mxCell>
        <mxCell id="57l0s3gI56-OWIWqzOJ4-79" value="&lt;font style=&quot;font-size: 11px&quot;&gt;GestureDetector&lt;/font&gt;" style="rounded=0;whiteSpace=wrap;html=1;" parent="1" vertex="1">
          <mxGeometry x="1370" y="-600" width="80" height="20" as="geometry" />
        </mxCell>
        <mxCell id="57l0s3gI56-OWIWqzOJ4-80" value="&lt;font style=&quot;font-size: 11px&quot;&gt;GestureDetector&lt;/font&gt;" style="rounded=0;whiteSpace=wrap;html=1;" parent="1" vertex="1">
          <mxGeometry x="1450" y="-600" width="80" height="20" as="geometry" />
        </mxCell>
        <mxCell id="57l0s3gI56-OWIWqzOJ4-84" value="&lt;span style=&quot;font-size: 12px&quot;&gt;SvgPicture&lt;/span&gt;" style="rounded=0;whiteSpace=wrap;html=1;fontSize=11;" parent="1" vertex="1">
          <mxGeometry x="1450" y="-580" width="70" height="40" as="geometry" />
        </mxCell>
        <mxCell id="57l0s3gI56-OWIWqzOJ4-85" value="&lt;br&gt;Text" style="rounded=0;whiteSpace=wrap;html=1;fontSize=11;" parent="1" vertex="1">
          <mxGeometry x="882" y="-510" width="218" height="60" as="geometry" />
        </mxCell>
        <mxCell id="57l0s3gI56-OWIWqzOJ4-86" value="&lt;font style=&quot;font-size: 12px&quot;&gt;Center&lt;/font&gt;" style="rounded=0;whiteSpace=wrap;html=1;fontSize=11;" parent="1" vertex="1">
          <mxGeometry x="882" y="-510" width="218" height="20" as="geometry" />
        </mxCell>
        <mxCell id="TbB3b76XIUmg1TdUY6Nw-3" value="" style="edgeStyle=orthogonalEdgeStyle;rounded=0;orthogonalLoop=1;jettySize=auto;html=1;" parent="1" source="TbB3b76XIUmg1TdUY6Nw-1" target="TbB3b76XIUmg1TdUY6Nw-2" edge="1">
          <mxGeometry relative="1" as="geometry" />
        </mxCell>
        <mxCell id="TbB3b76XIUmg1TdUY6Nw-1" value="최성준 목사님" style="ellipse;whiteSpace=wrap;html=1;" parent="1" vertex="1">
          <mxGeometry x="19" y="-730" width="120" height="80" as="geometry" />
        </mxCell>
        <mxCell id="TbB3b76XIUmg1TdUY6Nw-5" value="" style="edgeStyle=orthogonalEdgeStyle;rounded=0;orthogonalLoop=1;jettySize=auto;html=1;" parent="1" source="TbB3b76XIUmg1TdUY6Nw-2" target="TbB3b76XIUmg1TdUY6Nw-4" edge="1">
          <mxGeometry relative="1" as="geometry" />
        </mxCell>
        <mxCell id="TbB3b76XIUmg1TdUY6Nw-7" value="" style="edgeStyle=orthogonalEdgeStyle;rounded=0;orthogonalLoop=1;jettySize=auto;html=1;" parent="1" source="TbB3b76XIUmg1TdUY6Nw-2" target="TbB3b76XIUmg1TdUY6Nw-6" edge="1">
          <mxGeometry relative="1" as="geometry" />
        </mxCell>
        <mxCell id="TbB3b76XIUmg1TdUY6Nw-11" value="" style="edgeStyle=orthogonalEdgeStyle;rounded=0;orthogonalLoop=1;jettySize=auto;html=1;" parent="1" source="TbB3b76XIUmg1TdUY6Nw-2" target="TbB3b76XIUmg1TdUY6Nw-10" edge="1">
          <mxGeometry relative="1" as="geometry" />
        </mxCell>
        <mxCell id="TbB3b76XIUmg1TdUY6Nw-2" value="예배팀" style="whiteSpace=wrap;html=1;" parent="1" vertex="1">
          <mxGeometry x="19" y="-610" width="120" height="60" as="geometry" />
        </mxCell>
        <mxCell id="TbB3b76XIUmg1TdUY6Nw-38" value="" style="edgeStyle=orthogonalEdgeStyle;rounded=0;orthogonalLoop=1;jettySize=auto;html=1;" parent="1" source="TbB3b76XIUmg1TdUY6Nw-4" target="TbB3b76XIUmg1TdUY6Nw-37" edge="1">
          <mxGeometry relative="1" as="geometry" />
        </mxCell>
        <mxCell id="TbB3b76XIUmg1TdUY6Nw-4" value="최성준 목사님(팀장)&lt;br&gt;&lt;br&gt;박세현&lt;br&gt;&lt;br&gt;서한결&lt;br&gt;&lt;br&gt;홍새라" style="rounded=1;whiteSpace=wrap;html=1;" parent="1" vertex="1">
          <mxGeometry x="19" y="-520" width="120" height="200" as="geometry" />
        </mxCell>
        <mxCell id="TbB3b76XIUmg1TdUY6Nw-9" value="" style="edgeStyle=orthogonalEdgeStyle;rounded=0;orthogonalLoop=1;jettySize=auto;html=1;" parent="1" source="TbB3b76XIUmg1TdUY6Nw-6" target="TbB3b76XIUmg1TdUY6Nw-8" edge="1">
          <mxGeometry relative="1" as="geometry" />
        </mxCell>
        <mxCell id="TbB3b76XIUmg1TdUY6Nw-25" value="" style="edgeStyle=orthogonalEdgeStyle;rounded=0;orthogonalLoop=1;jettySize=auto;html=1;" parent="1" source="TbB3b76XIUmg1TdUY6Nw-6" target="TbB3b76XIUmg1TdUY6Nw-24" edge="1">
          <mxGeometry relative="1" as="geometry" />
        </mxCell>
        <mxCell id="TbB3b76XIUmg1TdUY6Nw-6" value="미디어팀" style="whiteSpace=wrap;html=1;" parent="1" vertex="1">
          <mxGeometry x="159" y="-610" width="120" height="60" as="geometry" />
        </mxCell>
        <mxCell id="TbB3b76XIUmg1TdUY6Nw-44" value="" style="edgeStyle=orthogonalEdgeStyle;rounded=0;orthogonalLoop=1;jettySize=auto;html=1;" parent="1" source="TbB3b76XIUmg1TdUY6Nw-8" target="TbB3b76XIUmg1TdUY6Nw-43" edge="1">
          <mxGeometry relative="1" as="geometry">
            <Array as="points">
              <mxPoint x="230" y="-250" />
            </Array>
          </mxGeometry>
        </mxCell>
        <mxCell id="TbB3b76XIUmg1TdUY6Nw-8" value="임주영(팀장)&lt;br&gt;&lt;br&gt;홍새미" style="rounded=1;whiteSpace=wrap;html=1;" parent="1" vertex="1">
          <mxGeometry x="159" y="-520" width="120" height="200" as="geometry" />
        </mxCell>
        <mxCell id="TbB3b76XIUmg1TdUY6Nw-13" value="" style="edgeStyle=orthogonalEdgeStyle;rounded=0;orthogonalLoop=1;jettySize=auto;html=1;" parent="1" source="TbB3b76XIUmg1TdUY6Nw-10" target="TbB3b76XIUmg1TdUY6Nw-12" edge="1">
          <mxGeometry relative="1" as="geometry" />
        </mxCell>
        <mxCell id="TbB3b76XIUmg1TdUY6Nw-19" value="" style="edgeStyle=orthogonalEdgeStyle;rounded=0;orthogonalLoop=1;jettySize=auto;html=1;" parent="1" source="TbB3b76XIUmg1TdUY6Nw-10" edge="1">
          <mxGeometry relative="1" as="geometry">
            <mxPoint x="-170" y="-580" as="targetPoint" />
          </mxGeometry>
        </mxCell>
        <mxCell id="TbB3b76XIUmg1TdUY6Nw-10" value="식사팀" style="whiteSpace=wrap;html=1;" parent="1" vertex="1">
          <mxGeometry x="-120" y="-610" width="120" height="60" as="geometry" />
        </mxCell>
        <mxCell id="TbB3b76XIUmg1TdUY6Nw-49" value="" style="edgeStyle=orthogonalEdgeStyle;rounded=0;orthogonalLoop=1;jettySize=auto;html=1;" parent="1" source="TbB3b76XIUmg1TdUY6Nw-12" target="TbB3b76XIUmg1TdUY6Nw-48" edge="1">
          <mxGeometry relative="1" as="geometry" />
        </mxCell>
        <mxCell id="TbB3b76XIUmg1TdUY6Nw-12" value="안지홍(팀장)&lt;br&gt;&lt;br&gt;최하늬&lt;br&gt;&lt;br&gt;전미솔&lt;br&gt;&lt;br&gt;안현재" style="rounded=1;whiteSpace=wrap;html=1;" parent="1" vertex="1">
          <mxGeometry x="-120" y="-520" width="120" height="200" as="geometry" />
        </mxCell>
        <mxCell id="TbB3b76XIUmg1TdUY6Nw-27" value="" style="edgeStyle=orthogonalEdgeStyle;rounded=0;orthogonalLoop=1;jettySize=auto;html=1;" parent="1" source="TbB3b76XIUmg1TdUY6Nw-24" target="TbB3b76XIUmg1TdUY6Nw-26" edge="1">
          <mxGeometry relative="1" as="geometry" />
        </mxCell>
        <mxCell id="TbB3b76XIUmg1TdUY6Nw-24" value="사역 기록팀" style="whiteSpace=wrap;html=1;" parent="1" vertex="1">
          <mxGeometry x="306.5" y="-610" width="120" height="60" as="geometry" />
        </mxCell>
        <mxCell id="TbB3b76XIUmg1TdUY6Nw-47" value="" style="edgeStyle=orthogonalEdgeStyle;rounded=0;orthogonalLoop=1;jettySize=auto;html=1;" parent="1" source="TbB3b76XIUmg1TdUY6Nw-26" target="TbB3b76XIUmg1TdUY6Nw-46" edge="1">
          <mxGeometry relative="1" as="geometry" />
        </mxCell>
        <mxCell id="TbB3b76XIUmg1TdUY6Nw-26" value="전미솔(팀장)&lt;br&gt;&lt;br&gt;안현재" style="rounded=1;whiteSpace=wrap;html=1;" parent="1" vertex="1">
          <mxGeometry x="306.5" y="-520" width="120" height="200" as="geometry" />
        </mxCell>
        <mxCell id="TbB3b76XIUmg1TdUY6Nw-28" value="프로그램팀" style="whiteSpace=wrap;html=1;" parent="1" vertex="1">
          <mxGeometry x="-260" y="-610" width="120" height="60" as="geometry" />
        </mxCell>
        <mxCell id="TbB3b76XIUmg1TdUY6Nw-30" value="" style="edgeStyle=orthogonalEdgeStyle;rounded=0;orthogonalLoop=1;jettySize=auto;html=1;exitX=0.5;exitY=1;exitDx=0;exitDy=0;" parent="1" source="TbB3b76XIUmg1TdUY6Nw-28" target="TbB3b76XIUmg1TdUY6Nw-31" edge="1">
          <mxGeometry relative="1" as="geometry">
            <mxPoint x="-371" y="-550" as="sourcePoint" />
          </mxGeometry>
        </mxCell>
        <mxCell id="TbB3b76XIUmg1TdUY6Nw-36" value="" style="edgeStyle=orthogonalEdgeStyle;rounded=0;orthogonalLoop=1;jettySize=auto;html=1;" parent="1" source="TbB3b76XIUmg1TdUY6Nw-31" target="TbB3b76XIUmg1TdUY6Nw-35" edge="1">
          <mxGeometry relative="1" as="geometry" />
        </mxCell>
        <mxCell id="TbB3b76XIUmg1TdUY6Nw-31" value="박세현(팀장)&lt;br&gt;&lt;br&gt;서한결&lt;br&gt;&lt;br&gt;안지홍&lt;br&gt;&lt;br&gt;강은찬&lt;br&gt;&lt;br&gt;원정연&lt;br&gt;&lt;br&gt;이호정&lt;br&gt;&lt;br&gt;홍새라" style="rounded=1;whiteSpace=wrap;html=1;" parent="1" vertex="1">
          <mxGeometry x="-260" y="-520" width="120" height="200" as="geometry" />
        </mxCell>
        <mxCell id="TbB3b76XIUmg1TdUY6Nw-35" value="큐티 캠프 게임 준비, 게임 물품 준비, 게임 진행, 인솔, 팀 명찰 준비, 게임 상품 준비, 시상식 진행&amp;nbsp;" style="whiteSpace=wrap;html=1;rounded=1;" parent="1" vertex="1">
          <mxGeometry x="-265" y="-300" width="130" height="60" as="geometry" />
        </mxCell>
        <mxCell id="TbB3b76XIUmg1TdUY6Nw-37" value="찬양, 율동 준비&lt;br&gt;루마니아어로 찬양 준비&lt;br&gt;특송, 간증 준비" style="whiteSpace=wrap;html=1;rounded=1;" parent="1" vertex="1">
          <mxGeometry y="-300" width="160" height="60" as="geometry" />
        </mxCell>
        <mxCell id="TbB3b76XIUmg1TdUY6Nw-43" value="아웃리치영상 기획, 촬영, 편집" style="whiteSpace=wrap;html=1;rounded=1;" parent="1" vertex="1">
          <mxGeometry x="169" y="-300" width="120" height="60" as="geometry" />
        </mxCell>
        <mxCell id="TbB3b76XIUmg1TdUY6Nw-45" value="&lt;span style=&quot;color: rgb(0, 0, 0); font-family: Helvetica; font-size: 12px; font-style: normal; font-variant-ligatures: normal; font-variant-caps: normal; font-weight: 400; letter-spacing: normal; orphans: 2; text-align: center; text-indent: 0px; text-transform: none; widows: 2; word-spacing: 0px; -webkit-text-stroke-width: 0px; background-color: rgb(251, 251, 251); text-decoration-thickness: initial; text-decoration-style: initial; text-decoration-color: initial; float: none; display: inline !important;&quot;&gt;루마니아어 Way Maker 찬양&lt;br&gt;https://www.youtube.com/watch?v=IlIKHIuCi2U&amp;amp;list=PLrGj6UwYHKte8uQx8GKK9GTA4PPdPI5h0&amp;amp;index=4)&lt;/span&gt;" style="text;whiteSpace=wrap;html=1;" parent="1" vertex="1">
          <mxGeometry x="-260" y="-220" width="560" height="50" as="geometry" />
        </mxCell>
        <mxCell id="TbB3b76XIUmg1TdUY6Nw-46" value="사역 기록" style="whiteSpace=wrap;html=1;rounded=1;" parent="1" vertex="1">
          <mxGeometry x="306.5" y="-300" width="120" height="60" as="geometry" />
        </mxCell>
        <mxCell id="TbB3b76XIUmg1TdUY6Nw-48" value="메뉴 대략적으로 결정 - 대략적인 가격 예상. 예상 컨펌, 현지에서 조리" style="whiteSpace=wrap;html=1;rounded=1;" parent="1" vertex="1">
          <mxGeometry x="-112.5" y="-300" width="105" height="60" as="geometry" />
        </mxCell>
        <mxCell id="TR189pSvav6QVIDnfRAX-1" value="" style="endArrow=none;html=1;rounded=0;endSize=11;strokeWidth=3;" edge="1" parent="1">
          <mxGeometry width="50" height="50" relative="1" as="geometry">
            <mxPoint x="-620" y="-840" as="sourcePoint" />
            <mxPoint x="-620" y="-1110" as="targetPoint" />
          </mxGeometry>
        </mxCell>
        <mxCell id="TR189pSvav6QVIDnfRAX-2" value="" style="endArrow=none;html=1;rounded=0;endSize=11;strokeWidth=3;" edge="1" parent="1">
          <mxGeometry width="50" height="50" relative="1" as="geometry">
            <mxPoint x="-620" y="-840" as="sourcePoint" />
            <mxPoint x="-100" y="-840" as="targetPoint" />
          </mxGeometry>
        </mxCell>
        <mxCell id="TR189pSvav6QVIDnfRAX-3" value="&lt;font style=&quot;font-size: 14px;&quot;&gt;&lt;b&gt;믿음&lt;/b&gt;&lt;/font&gt;" style="text;html=1;align=center;verticalAlign=middle;resizable=0;points=[];autosize=1;strokeColor=none;fillColor=none;" vertex="1" parent="1">
          <mxGeometry x="-670" y="-1110" width="50" height="30" as="geometry" />
        </mxCell>
        <mxCell id="TR189pSvav6QVIDnfRAX-4" value="&lt;font style=&quot;font-size: 14px;&quot;&gt;&lt;b&gt;나이&lt;/b&gt;&lt;/font&gt;" style="text;html=1;align=center;verticalAlign=middle;resizable=0;points=[];autosize=1;strokeColor=none;fillColor=none;" vertex="1" parent="1">
          <mxGeometry x="-135" y="-840" width="50" height="30" as="geometry" />
        </mxCell>
        <mxCell id="TR189pSvav6QVIDnfRAX-7" value="" style="curved=1;endArrow=classic;html=1;rounded=0;strokeColor=#0066CC;strokeWidth=3;" edge="1" parent="1">
          <mxGeometry width="50" height="50" relative="1" as="geometry">
            <mxPoint x="-620" y="-840" as="sourcePoint" />
            <mxPoint x="-120" y="-1040" as="targetPoint" />
            <Array as="points">
              <mxPoint x="-580" y="-870" />
              <mxPoint x="-500" y="-870" />
              <mxPoint x="-460" y="-920" />
              <mxPoint x="-380" y="-920" />
              <mxPoint x="-370" y="-900" />
              <mxPoint x="-340" y="-900" />
              <mxPoint x="-320" y="-930" />
              <mxPoint x="-320" y="-960" />
              <mxPoint x="-310" y="-980" />
              <mxPoint x="-300" y="-950" />
              <mxPoint x="-280" y="-970" />
              <mxPoint x="-280" y="-940" />
              <mxPoint x="-260" y="-930" />
              <mxPoint x="-250" y="-940" />
              <mxPoint x="-230" y="-920" />
              <mxPoint x="-210" y="-920" />
              <mxPoint x="-200" y="-930" />
              <mxPoint x="-200" y="-940" />
              <mxPoint x="-190" y="-960" />
              <mxPoint x="-170" y="-980" />
              <mxPoint x="-150" y="-990" />
            </Array>
          </mxGeometry>
        </mxCell>
        <mxCell id="TR189pSvav6QVIDnfRAX-9" value="" style="endArrow=none;html=1;rounded=0;" edge="1" parent="1">
          <mxGeometry width="50" height="50" relative="1" as="geometry">
            <mxPoint x="-500" y="-830" as="sourcePoint" />
            <mxPoint x="-500" y="-850" as="targetPoint" />
          </mxGeometry>
        </mxCell>
        <mxCell id="TR189pSvav6QVIDnfRAX-11" value="" style="endArrow=none;html=1;rounded=0;" edge="1" parent="1">
          <mxGeometry width="50" height="50" relative="1" as="geometry">
            <mxPoint x="-380" y="-830" as="sourcePoint" />
            <mxPoint x="-380" y="-850" as="targetPoint" />
            <Array as="points">
              <mxPoint x="-380" y="-840" />
            </Array>
          </mxGeometry>
        </mxCell>
        <mxCell id="TR189pSvav6QVIDnfRAX-12" value="" style="endArrow=none;html=1;rounded=0;" edge="1" parent="1">
          <mxGeometry width="50" height="50" relative="1" as="geometry">
            <mxPoint x="-260" y="-830" as="sourcePoint" />
            <mxPoint x="-260" y="-850" as="targetPoint" />
            <Array as="points">
              <mxPoint x="-260" y="-840" />
            </Array>
          </mxGeometry>
        </mxCell>
        <mxCell id="TR189pSvav6QVIDnfRAX-13" value="" style="endArrow=none;html=1;rounded=0;" edge="1" parent="1">
          <mxGeometry width="50" height="50" relative="1" as="geometry">
            <mxPoint x="-160" y="-830" as="sourcePoint" />
            <mxPoint x="-160" y="-850" as="targetPoint" />
            <Array as="points">
              <mxPoint x="-160" y="-840" />
            </Array>
          </mxGeometry>
        </mxCell>
        <mxCell id="TR189pSvav6QVIDnfRAX-14" value="7세" style="text;html=1;align=center;verticalAlign=middle;resizable=0;points=[];autosize=1;strokeColor=none;fillColor=none;" vertex="1" parent="1">
          <mxGeometry x="-520" y="-832" width="40" height="30" as="geometry" />
        </mxCell>
        <mxCell id="TR189pSvav6QVIDnfRAX-15" value="14세" style="text;html=1;align=center;verticalAlign=middle;resizable=0;points=[];autosize=1;strokeColor=none;fillColor=none;" vertex="1" parent="1">
          <mxGeometry x="-405" y="-830" width="50" height="30" as="geometry" />
        </mxCell>
        <mxCell id="TR189pSvav6QVIDnfRAX-16" value="21세" style="text;html=1;align=center;verticalAlign=middle;resizable=0;points=[];autosize=1;strokeColor=none;fillColor=none;" vertex="1" parent="1">
          <mxGeometry x="-280" y="-832" width="50" height="30" as="geometry" />
        </mxCell>
        <mxCell id="TR189pSvav6QVIDnfRAX-17" value="27세" style="text;html=1;align=center;verticalAlign=middle;resizable=0;points=[];autosize=1;strokeColor=none;fillColor=none;" vertex="1" parent="1">
          <mxGeometry x="-185" y="-832" width="50" height="30" as="geometry" />
        </mxCell>
        <mxCell id="TR189pSvav6QVIDnfRAX-19" value="" style="endArrow=none;html=1;rounded=0;strokeColor=#FF0000;" edge="1" parent="1">
          <mxGeometry width="50" height="50" relative="1" as="geometry">
            <mxPoint x="-500.34" y="-870" as="sourcePoint" />
            <mxPoint x="-500.34" y="-890" as="targetPoint" />
          </mxGeometry>
        </mxCell>
        <mxCell id="TR189pSvav6QVIDnfRAX-21" value="&lt;font color=&quot;#ff0000&quot;&gt;1&lt;/font&gt;" style="ellipse;whiteSpace=wrap;html=1;strokeColor=#ff0000;" vertex="1" parent="1">
          <mxGeometry x="-510" y="-910" width="20" height="20" as="geometry" />
        </mxCell>
        <mxCell id="TR189pSvav6QVIDnfRAX-22" value="" style="endArrow=none;html=1;rounded=0;strokeColor=#FF0000;" edge="1" parent="1">
          <mxGeometry width="50" height="50" relative="1" as="geometry">
            <mxPoint x="-380.34" y="-910" as="sourcePoint" />
            <mxPoint x="-380.34" y="-930" as="targetPoint" />
          </mxGeometry>
        </mxCell>
        <mxCell id="TR189pSvav6QVIDnfRAX-23" value="&lt;font color=&quot;#ff0000&quot;&gt;2&lt;/font&gt;" style="ellipse;whiteSpace=wrap;html=1;strokeColor=#ff0000;" vertex="1" parent="1">
          <mxGeometry x="-390" y="-950" width="20" height="20" as="geometry" />
        </mxCell>
        <mxCell id="TR189pSvav6QVIDnfRAX-24" value="" style="endArrow=none;html=1;rounded=0;strokeColor=#FF0000;" edge="1" parent="1">
          <mxGeometry width="50" height="50" relative="1" as="geometry">
            <mxPoint x="-340.34" y="-900" as="sourcePoint" />
            <mxPoint x="-340.34" y="-920" as="targetPoint" />
          </mxGeometry>
        </mxCell>
        <mxCell id="TR189pSvav6QVIDnfRAX-25" value="&lt;font color=&quot;#ff0000&quot;&gt;3&lt;/font&gt;" style="ellipse;whiteSpace=wrap;html=1;strokeColor=#ff0000;" vertex="1" parent="1">
          <mxGeometry x="-350" y="-940" width="20" height="20" as="geometry" />
        </mxCell>
        <mxCell id="TR189pSvav6QVIDnfRAX-26" value="" style="endArrow=none;html=1;rounded=0;strokeColor=#FF0000;" edge="1" parent="1">
          <mxGeometry width="50" height="50" relative="1" as="geometry">
            <mxPoint x="-270.34" y="-930" as="sourcePoint" />
            <mxPoint x="-270.34" y="-950" as="targetPoint" />
          </mxGeometry>
        </mxCell>
        <mxCell id="TR189pSvav6QVIDnfRAX-27" value="&lt;font color=&quot;#ff0000&quot;&gt;4&lt;/font&gt;" style="ellipse;whiteSpace=wrap;html=1;strokeColor=#ff0000;" vertex="1" parent="1">
          <mxGeometry x="-280" y="-970" width="20" height="20" as="geometry" />
        </mxCell>
        <mxCell id="TR189pSvav6QVIDnfRAX-29" value="" style="endArrow=none;html=1;rounded=0;strokeColor=#FF0000;" edge="1" parent="1">
          <mxGeometry width="50" height="50" relative="1" as="geometry">
            <mxPoint x="-210.33999999999997" y="-920" as="sourcePoint" />
            <mxPoint x="-210.33999999999997" y="-940" as="targetPoint" />
          </mxGeometry>
        </mxCell>
        <mxCell id="TR189pSvav6QVIDnfRAX-30" value="&lt;font color=&quot;#ff0000&quot;&gt;5&lt;/font&gt;" style="ellipse;whiteSpace=wrap;html=1;strokeColor=#ff0000;" vertex="1" parent="1">
          <mxGeometry x="-220" y="-960" width="20" height="20" as="geometry" />
        </mxCell>
        <mxCell id="TR189pSvav6QVIDnfRAX-31" value="" style="endArrow=none;html=1;rounded=0;strokeColor=#FF0000;" edge="1" parent="1">
          <mxGeometry width="50" height="50" relative="1" as="geometry">
            <mxPoint x="-160.33999999999997" y="-980" as="sourcePoint" />
            <mxPoint x="-160.33999999999997" y="-1000" as="targetPoint" />
          </mxGeometry>
        </mxCell>
        <mxCell id="TR189pSvav6QVIDnfRAX-32" value="&lt;font color=&quot;#ff0000&quot;&gt;6&lt;/font&gt;" style="ellipse;whiteSpace=wrap;html=1;strokeColor=#ff0000;" vertex="1" parent="1">
          <mxGeometry x="-170" y="-1020" width="20" height="20" as="geometry" />
        </mxCell>
      </root>
    </mxGraphModel>
  </diagram>
</mxfile>
